<svg width="20" height="15" viewBox="0 0 20 15" fill="none" xmlns="http://www.w3.org/2000/svg">
<path d="M0 1.25C0 0.56 0.559167 0 1.25 0H18.75C19.4408 0 20 0.56 20 1.25C20 1.94 19.4408 2.5 18.75 2.5H1.25C0.559167 2.5 0 1.94 0 1.25ZM18.75 12.5H1.25C0.559167 12.5 0 13.06 0 13.75C0 14.44 0.559167 15 1.25 15H18.75C19.4408 15 20 14.44 20 13.75C20 13.06 19.4408 12.5 18.75 12.5ZM18.75 4.16667H7.91667C7.22583 4.16667 6.66667 4.72667 6.66667 5.41667C6.66667 6.10667 7.22583 6.66667 7.91667 6.66667H18.75C19.4408 6.66667 20 6.10667 20 5.41667C20 4.72667 19.4408 4.16667 18.75 4.16667ZM18.75 8.33333H7.91667C7.22583 8.33333 6.66667 8.89333 6.66667 9.58333C6.66667 10.2733 7.22583 10.8333 7.91667 10.8333H18.75C19.4408 10.8333 20 10.2733 20 9.58333C20 8.89333 19.4408 8.33333 18.75 8.33333ZM3.5775 4.37917L1.09917 6.8575C0.744167 7.2125 0.744167 7.7875 1.09917 8.1425L3.5775 10.6208C4.1025 11.1458 5 10.7742 5 10.0317V4.96917C5 4.22667 4.1025 3.85417 3.5775 4.37917Z" fill="currentColor"/>
</svg>
